# xmcd
#
# Track frame offsets:
#	150
#	17587
#	36055
#
# Disc length: 681 seconds
#
# Revision: 0
# Processed by: cddbd v1.5.2PL0 Copyright (c) Steve Scherf et al.
# Submitted via: audiograbber 1.83.01
#
DISCID=1702a703
DTITLE=Bellamy Brothers - Bellamy Brothers Special Dance Mixes
DYEAR=1900
DGENRE=Country
TTITLE0=Redneck Girl
TTITLE1=Cowboy Beat
TTITLE2=Can I Come Home To You
EXTD=
EXTT0=
EXTT1=
EXTT2=
PLAYORDER=
